<?xml version="1.0" encoding="UTF-8"?><svg id="Layer_2" xmlns="http://www.w3.org/2000/svg" viewBox="0 0 831.92 102.37"><defs><style>.cls-1{fill:#88a9b4;}.cls-2{fill:#1c576e;}.cls-3{fill:#7d2222;}.cls-4{fill:#cc3534;}.cls-5{fill:#2cb1e1;}.cls-6{fill:none;stroke:#1d1d1b;stroke-miterlimit:10;stroke-width:10px;}.cls-7{fill:#1d1d1b;}</style></defs><g id="Layer_1-2"><g><rect class="cls-1" width="831.92" height="102.37"/><g><path class="cls-5" d="M104.25,17.5c2.05,4.56,1.95,8.81-1.33,12.91-5.38,6.7-10.51,13.61-15.92,20.29-1.96,2.42-2.22,4.24-.25,6.92,5.87,7.99,11.45,16.2,17.09,24.37,.93,1.34,1.88,2.8,2.28,4.34,1.61,6.16,0,8.15-6.28,8.19-.99,0-2.01-.12-2.98,.02-5.44,.82-9.75-.63-12.25-5.89-3.36-7.59-8.72-13.92-13.12-20.86-.82-1.3-2.04-1.68-3.23-.24-4.35,6.43-9.23,12.57-12.91,19.36-3.41,6.29-7.89,8.77-14.77,7.63-2.4-.4-4.99,.54-7.24-1-.77-5.74,1.06-10.55,4.52-15.17,4.77-6.35,8.82-13.25,13.58-19.61,2.55-3.4,2.44-5.84-.19-9.11-5.18-6.46-9.87-13.31-14.91-19.89-2.65-3.46-2.3-7.5-1.22-10.9,.9-2.82,4.68-1.27,7.19-1.55,2.13-.24,4.28-.28,6.43-.41l-.07-.12c.29,.22,.57,.44,.86,.66,5.14,3.89,7.36,10.19,12,14.49,1.22,3.12,3.69,5.41,5.47,8.16,1.72,2.66,3.38,2.73,5.29,.11,3.01-4.12,6.78-7.82,9.12-12.28,5.05-9.59,12.72-12.42,22.83-10.45Z"/><path class="cls-2" d="M48.76,16.91c-2.14,.13-4.3,.16-6.43,.41-2.51,.29-6.29-1.27-7.19,1.55-1.08,3.4-1.43,7.44,1.22,10.9,5.04,6.58,9.73,13.43,14.91,19.89,2.62,3.27,2.74,5.71,.19,9.11-4.76,6.36-8.81,13.26-13.58,19.61-3.47,4.62-5.3,9.43-4.52,15.17-4.41-4.2-10.69-7.1-9.64-14.95,.3-2.22,.78-4.13,2.05-5.96,5.19-7.5,10.08-15.22,15.55-22.5,2.97-3.96,3.28-6.83-.07-10.77-4.83-5.67-9.01-11.89-13.46-17.88-.59-.8-1.25-1.56-1.74-2.42-3.64-6.44-.92-10.64,6.26-11.31,7.94-.74,12.82,2.8,16.45,9.17Z"/><path class="cls-2" d="M104.25,17.5c-10.11-1.97-17.77,.85-22.83,10.45-2.35,4.46-6.11,8.16-9.12,12.28-1.91,2.62-3.57,2.55-5.29-.11-1.78-2.75-4.25-5.04-5.47-8.16,5.26-6.79,10.52-13.59,15.8-20.38,3.53-4.55,15.34-5.51,19.63-1.5,2.53,2.36,4.87,4.94,7.29,7.43Z"/><path class="cls-2" d="M68.26,67.56c1.19-1.45,2.4-1.06,3.23,.24,4.39,6.94,9.76,13.27,13.12,20.86-3.35-1.16-5.08-3.99-6.89-6.71-3.18-4.77-6.3-9.59-9.45-14.38Z"/><path class="cls-2" d="M49.54,17.46c-.29-.22-.57-.44-.86-.66,.29,.22,.57,.44,.86,.66Z"/></g><g><path class="cls-4" d="M807.5,23.98c15.66,11.46,17.65,33.41,10.7,48.52-6.85,14.88-25.27,22.95-43.54,19.58-10.04-1.85-18.29-6.6-24.7-14.54-.36-.35-.73-.7-1.09-1.06l.06,.04c-.08-.84-.26-1.62-1.19-1.94l.04,.08c.14-1.76-.92-3.14-1.51-4.67-9.06-23.61,4.21-48.15,28.06-52.23,10.72-1.83,20.76-.16,30.42,4.55,.39,.31,.77,.61,1.16,.91,.53,.25,1.06,.5,1.6,.75Zm-13.84,11.22c-2.01-1.58-4.33-2.37-6.83-2.68-8.69-1.1-16.38,.84-21.32,8.5-5.32,8.25-5.6,17.04-.92,25.83,1.69,4.29,5,6.92,9.07,8.72,10.78,4.78,23.13,.61,28.16-9.47,5.67-11.37,2.06-25.03-8.16-30.89Z"/><path class="cls-3" d="M804.75,22.32c-9.66-4.71-19.69-6.38-30.42-4.55-23.85,4.08-37.12,28.62-28.06,52.23,.59,1.53,1.65,2.91,1.51,4.67-8.3-5.42-11.41-13.87-12.65-22.98-2.32-17.03,5.46-32.13,19.49-39,15.67-7.68,36.85-4.88,48.25,6.42,.9,.89,2.23,1.59,1.88,3.23Z"/><path class="cls-3" d="M807.5,23.98c-.53-.25-1.07-.5-1.6-.75,.54,.25,1.07,.5,1.6,.75Z"/><path class="cls-3" d="M747.74,74.59c.93,.32,1.11,1.11,1.19,1.94-.71-.46-1.48-.88-1.19-1.94Z"/><path class="cls-3" d="M748.87,76.49c.36,.35,.72,.7,1.09,1.06-.36-.35-.72-.7-1.09-1.06Z"/><path class="cls-3" d="M764.59,66.85c8.88,3.08,17.4,2.96,24.46-4.02,8.07-7.98,7.87-17.62,4.61-27.63,10.22,5.86,13.83,19.52,8.16,30.89-5.03,10.08-17.38,14.25-28.16,9.47-4.07-1.8-7.38-4.43-9.07-8.72Z"/></g><g><path class="cls-7" d="M172.86,37.18c.82,0,1.23,.35,1.23,1.06,0,.32-.1,.67-.31,1.06l-11,19.01c-.32,.59-.81,1.09-1.47,1.5-.66,.41-1.28,.62-1.87,.62h-14.78c-.56,0-1.16,.21-1.82,.62s-1.15,.91-1.47,1.5l-7,12.14c-.44,.76-.91,1.14-1.41,1.14-.26,0-.48-.15-.66-.44l-5.81-9.9c-.21-.32-.31-.73-.31-1.23,0-.73,.18-1.39,.53-1.98l13.29-22.97c.32-.59,.81-1.08,1.45-1.5,.65-.41,1.26-.62,1.85-.62h29.57Zm-15.1,4.22c.21-.38,.31-.73,.31-1.05,0-.7-.4-1.05-1.19-1.05-.59,0-1.21,.21-1.87,.62-.66,.41-1.15,.91-1.47,1.5l-8.53,14.79c-.24,.38-.36,.73-.36,1.05,0,.7,.41,1.05,1.23,1.05,.59,0,1.2-.2,1.85-.62,.65-.41,1.14-.91,1.5-1.5l8.53-14.79Z"/><path class="cls-7" d="M192.88,32.12c.18,.29,.26,.69,.26,1.19,0,.73-.18,1.41-.53,2.02l-13.24,22.97c-.35,.59-.85,1.09-1.5,1.5-.65,.41-1.26,.62-1.85,.62h-10.56c-.82,0-1.23-.35-1.23-1.06,0-.32,.12-.67,.35-1.06l13.42-23.23,7-12.14c.44-.76,.91-1.14,1.41-1.14,.26,0,.47,.13,.62,.4l5.85,9.94Z"/><path class="cls-7" d="M225.08,37.18c.79,0,1.19,.35,1.19,1.06,0,.32-.1,.67-.31,1.06l-11,19.01c-.32,.59-.81,1.09-1.47,1.5-.66,.41-1.27,.62-1.83,.62h-29.57c-.82,0-1.23-.35-1.23-1.06,0-.32,.1-.67,.31-1.06l4.88-8.45c.35-.59,.85-1.08,1.5-1.5,.65-.41,1.26-.62,1.85-.62h14.78c.59,0,1.21-.2,1.86-.61,.65-.41,1.15-.91,1.5-1.49l2.43-4.21c.19-.38,.28-.74,.28-1.06,0-.71-.4-1.07-1.19-1.07-.58,0-1.19,.21-1.83,.62-.64,.41-1.13,.92-1.48,1.51l-1.23,2.12c-.32,.58-.82,1.07-1.48,1.48-.66,.41-1.27,.61-1.83,.61h-10.59c-.82,0-1.23-.35-1.23-1.06,0-.32,.1-.67,.31-1.06l2.46-4.22c.32-.59,.81-1.08,1.47-1.5,.66-.41,1.28-.62,1.87-.62h29.57Zm-21.22,14.78c.21-.38,.32-.73,.32-1.05,0-.7-.41-1.05-1.23-1.05-.59,0-1.2,.21-1.85,.62-.65,.41-1.13,.91-1.45,1.5l-2.46,4.22c-.21,.38-.31,.73-.31,1.06,0,.7,.4,1.06,1.19,1.06,.59,0,1.21-.2,1.87-.62,.66-.41,1.15-.91,1.48-1.49l2.45-4.23Z"/><path class="cls-7" d="M233.88,65.47c-.18-.29-.26-.69-.26-1.19,0-.73,.18-1.41,.53-2.02,.15-.29,.22-.57,.22-.84,0-.67-.43-1.01-1.28-1.01h-14.78c-.82,0-1.23-.35-1.23-1.06,0-.32,.12-.67,.35-1.06l10.96-19.01c.35-.59,.85-1.08,1.5-1.5,.65-.41,1.26-.62,1.85-.62h10.56c.79,0,1.19,.35,1.19,1.06,0,.32-.1,.67-.31,1.06l-9.77,16.9c-.21,.38-.31,.73-.31,1.06,0,.7,.41,1.06,1.23,1.06,.56,0,1.16-.21,1.82-.62,.66-.41,1.15-.91,1.47-1.5l9.77-16.9c.35-.59,.85-1.08,1.5-1.49s1.26-.62,1.85-.62h10.56c.79,0,1.19,.35,1.19,1.06,0,.32-.1,.67-.31,1.06l-20.42,35.38c-.44,.76-.91,1.14-1.41,1.14-.26,0-.47-.13-.62-.4l-5.85-9.94Z"/><path class="cls-7" d="M273.62,50.47c-.65,.41-1.15,.91-1.5,1.49l-2.42,4.21c-.21,.39-.31,.74-.31,1.07,0,.71,.41,1.07,1.23,1.07,.59,0,1.2-.2,1.85-.62,.65-.41,1.14-.91,1.5-1.5l1.23-2.11c.32-.59,.81-1.08,1.45-1.5,.65-.41,1.26-.62,1.85-.62h10.56c.82,0,1.23,.35,1.23,1.06,0,.32-.1,.67-.31,1.06l-2.46,4.22c-.32,.59-.81,1.09-1.47,1.5-.66,.41-1.28,.62-1.87,.62h-29.57c-.79,0-1.19-.35-1.19-1.06,0-.32,.1-.67,.31-1.06l11-19.01c.32-.59,.81-1.08,1.45-1.5,.65-.41,1.26-.62,1.85-.62h29.57c.82,0,1.23,.35,1.23,1.06,0,.32-.1,.67-.31,1.06l-4.89,8.45c-.35,.59-.85,1.08-1.5,1.5-.65,.41-1.26,.62-1.85,.62h-14.8c-.59,0-1.2,.2-1.85,.61Zm2.18-4.85c-.2,.38-.29,.74-.29,1.06,0,.71,.41,1.06,1.23,1.06,.56,0,1.17-.21,1.83-.62,.66-.41,1.15-.91,1.47-1.5l2.46-4.22c.2-.38,.31-.73,.31-1.06,0-.7-.4-1.06-1.19-1.06-.59,0-1.21,.21-1.88,.61s-1.15,.91-1.48,1.49l-2.46,4.22Z"/><path class="cls-7" d="M332.84,37.18c.82,0,1.23,.35,1.23,1.06,0,.32-.12,.67-.35,1.06l-2.42,4.22c-.32,.59-.81,1.09-1.47,1.5-.66,.41-1.28,.62-1.87,.62h-10.56c-.79,0-1.19-.35-1.19-1.06,0-.32,.1-.67,.31-1.06l1.23-2.11c.21-.38,.31-.73,.31-1.06,0-.7-.41-1.06-1.23-1.06-.56,0-1.17,.21-1.83,.62-.66,.41-1.15,.91-1.48,1.5l-9.8,16.88c-.32,.59-.81,1.09-1.47,1.51-.66,.41-1.28,.62-1.87,.62h-10.54c-.79,0-1.19-.35-1.19-1.06,0-.32,.1-.67,.31-1.06l10.96-19.01c.35-.59,.85-1.08,1.5-1.5,.64-.41,1.26-.62,1.85-.62h29.57Z"/><path class="cls-7" d="M372.04,37.18c.79,0,1.19,.35,1.19,1.06,0,.32-.1,.67-.31,1.06l-11,19.01c-.32,.59-.81,1.09-1.47,1.5-.66,.41-1.27,.62-1.83,.62h-10.56c-.82,0-1.23-.35-1.23-1.06,0-.32,.1-.67,.31-1.06l9.77-16.9c.35-.59,.85-1.08,1.5-1.5,.65-.41,1.26-.62,1.85-.62,1.03,0,1.93-.35,2.71-1.06,.78-.7,1.69-1.06,2.75-1.06h6.34Z"/></g><line class="cls-6" x1="438.63" y1="17.28" x2="393.29" y2="85.09"/><g><path class="cls-7" d="M497.28,37.18c.82,0,1.23,.35,1.23,1.06,0,.32-.1,.67-.31,1.06l-11,19.01c-.32,.59-.81,1.09-1.47,1.5-.66,.41-1.28,.62-1.87,.62h-14.78c-.56,0-1.16,.21-1.82,.62s-1.15,.91-1.47,1.5l-7,12.14c-.44,.76-.91,1.14-1.41,1.14-.26,0-.48-.15-.66-.44l-5.81-9.9c-.21-.32-.31-.73-.31-1.23,0-.73,.18-1.39,.53-1.98l13.29-22.97c.32-.59,.81-1.08,1.45-1.5,.65-.41,1.26-.62,1.85-.62h29.57Zm-15.1,4.22c.21-.38,.31-.73,.31-1.05,0-.7-.4-1.05-1.19-1.05-.59,0-1.21,.21-1.87,.62-.66,.41-1.15,.91-1.47,1.5l-8.53,14.79c-.24,.38-.36,.73-.36,1.05,0,.7,.41,1.05,1.23,1.05,.59,0,1.2-.2,1.85-.62,.65-.41,1.14-.91,1.5-1.5l8.53-14.79Z"/><path class="cls-7" d="M517.3,32.12c.18,.29,.26,.69,.26,1.19,0,.73-.18,1.41-.53,2.02l-13.24,22.97c-.35,.59-.85,1.09-1.5,1.5-.65,.41-1.26,.62-1.85,.62h-10.56c-.82,0-1.23-.35-1.23-1.06,0-.32,.12-.67,.35-1.06l13.42-23.23,7-12.14c.44-.76,.91-1.14,1.41-1.14,.26,0,.47,.13,.62,.4l5.85,9.94Z"/><path class="cls-7" d="M549.5,37.18c.79,0,1.19,.35,1.19,1.06,0,.32-.1,.67-.31,1.06l-11,19.01c-.32,.59-.81,1.09-1.47,1.5-.66,.41-1.27,.62-1.83,.62h-29.57c-.82,0-1.23-.35-1.23-1.06,0-.32,.1-.67,.31-1.06l4.88-8.45c.35-.59,.85-1.08,1.5-1.5,.65-.41,1.26-.62,1.85-.62h14.78c.59,0,1.21-.2,1.86-.61,.65-.41,1.15-.91,1.5-1.49l2.43-4.21c.19-.38,.28-.74,.28-1.06,0-.71-.4-1.07-1.19-1.07-.58,0-1.19,.21-1.83,.62-.64,.41-1.13,.92-1.48,1.51l-1.23,2.12c-.32,.58-.82,1.07-1.48,1.48-.66,.41-1.27,.61-1.83,.61h-10.59c-.82,0-1.23-.35-1.23-1.06,0-.32,.1-.67,.31-1.06l2.46-4.22c.32-.59,.81-1.08,1.47-1.5,.66-.41,1.28-.62,1.87-.62h29.57Zm-21.22,14.78c.21-.38,.32-.73,.32-1.05,0-.7-.41-1.05-1.23-1.05-.59,0-1.2,.21-1.85,.62-.65,.41-1.13,.91-1.45,1.5l-2.46,4.22c-.21,.38-.31,.73-.31,1.06,0,.7,.4,1.06,1.19,1.06,.59,0,1.21-.2,1.87-.62,.66-.41,1.15-.91,1.48-1.49l2.45-4.23Z"/><path class="cls-7" d="M558.3,65.47c-.18-.29-.26-.69-.26-1.19,0-.73,.18-1.41,.53-2.02,.15-.29,.22-.57,.22-.84,0-.67-.43-1.01-1.28-1.01h-14.78c-.82,0-1.23-.35-1.23-1.06,0-.32,.12-.67,.35-1.06l10.96-19.01c.35-.59,.85-1.08,1.5-1.5,.65-.41,1.26-.62,1.85-.62h10.56c.79,0,1.19,.35,1.19,1.06,0,.32-.1,.67-.31,1.06l-9.77,16.9c-.21,.38-.31,.73-.31,1.06,0,.7,.41,1.06,1.23,1.06,.56,0,1.16-.21,1.82-.62,.66-.41,1.15-.91,1.47-1.5l9.77-16.9c.35-.59,.85-1.08,1.5-1.49s1.26-.62,1.85-.62h10.56c.79,0,1.19,.35,1.19,1.06,0,.32-.1,.67-.31,1.06l-20.42,35.38c-.44,.76-.91,1.14-1.41,1.14-.26,0-.47-.13-.62-.4l-5.85-9.94Z"/><path class="cls-7" d="M598.04,50.47c-.65,.41-1.15,.91-1.5,1.49l-2.42,4.21c-.21,.39-.31,.74-.31,1.07,0,.71,.41,1.07,1.23,1.07,.59,0,1.2-.2,1.85-.62,.65-.41,1.14-.91,1.5-1.5l1.23-2.11c.32-.59,.81-1.08,1.45-1.5,.65-.41,1.26-.62,1.85-.62h10.56c.82,0,1.23,.35,1.23,1.06,0,.32-.1,.67-.31,1.06l-2.46,4.22c-.32,.59-.81,1.09-1.47,1.5-.66,.41-1.28,.62-1.87,.62h-29.57c-.79,0-1.19-.35-1.19-1.06,0-.32,.1-.67,.31-1.06l11-19.01c.32-.59,.81-1.08,1.45-1.5,.65-.41,1.26-.62,1.85-.62h29.57c.82,0,1.23,.35,1.23,1.06,0,.32-.1,.67-.31,1.06l-4.89,8.45c-.35,.59-.85,1.08-1.5,1.5-.65,.41-1.26,.62-1.85,.62h-14.8c-.59,0-1.2,.2-1.85,.61Zm2.18-4.85c-.2,.38-.29,.74-.29,1.06,0,.71,.41,1.06,1.23,1.06,.56,0,1.17-.21,1.83-.62,.66-.41,1.15-.91,1.47-1.5l2.46-4.22c.2-.38,.31-.73,.31-1.06,0-.7-.4-1.06-1.19-1.06-.59,0-1.21,.21-1.88,.61s-1.15,.91-1.48,1.49l-2.46,4.22Z"/><path class="cls-7" d="M657.26,37.18c.82,0,1.23,.35,1.23,1.06,0,.32-.12,.67-.35,1.06l-2.42,4.22c-.32,.59-.81,1.09-1.47,1.5-.66,.41-1.28,.62-1.87,.62h-10.56c-.79,0-1.19-.35-1.19-1.06,0-.32,.1-.67,.31-1.06l1.23-2.11c.21-.38,.31-.73,.31-1.06,0-.7-.41-1.06-1.23-1.06-.56,0-1.17,.21-1.83,.62-.66,.41-1.15,.91-1.48,1.5l-9.8,16.88c-.32,.59-.81,1.09-1.47,1.51-.66,.41-1.28,.62-1.87,.62h-10.54c-.79,0-1.19-.35-1.19-1.06,0-.32,.1-.67,.31-1.06l10.96-19.01c.35-.59,.85-1.08,1.5-1.5,.64-.41,1.26-.62,1.85-.62h29.57Z"/><path class="cls-7" d="M694.13,47.74c-.58,0-1.19,.21-1.83,.62-.64,.41-1.13,.92-1.48,1.51l-3.65,6.34c-.23,.38-.34,.73-.34,1.05,0,.7,.4,1.04,1.19,1.04,.59,0,1.21-.2,1.87-.62s1.15-.91,1.47-1.5l1.23-2.11c.32-.59,.81-1.08,1.47-1.5,.66-.41,1.28-.62,1.87-.62h10.56c.79,0,1.19,.35,1.19,1.06,0,.32-.1,.67-.31,1.06l-3.04,5.28c-.41,.7-1.32,1.06-2.73,1.06h-29.57c-.82,0-1.23-.35-1.23-1.06,0-.32,.1-.67,.31-1.06l6.12-10.56c.32-.59,.81-1.08,1.47-1.5,.66-.41,1.28-.62,1.87-.62h14.78c.56,0,1.17-.21,1.83-.62,.66-.41,1.15-.91,1.47-1.5l1.23-2.11c.21-.38,.31-.73,.31-1.06,0-.7-.4-1.06-1.19-1.06-.59,0-1.2,.21-1.85,.62-.65,.41-1.14,.91-1.5,1.5-.32,.59-.81,1.08-1.47,1.5s-1.28,.62-1.87,.62h-10.56c-.79,0-1.19-.35-1.19-1.06,0-.32,.1-.67,.31-1.06l1.85-3.17c.41-.7,1.32-1.06,2.73-1.06h29.57c.79,0,1.19,.35,1.19,1.06,0,.32-.1,.67-.31,1.06l-3.65,6.34c-.35,.59-.85,1.09-1.5,1.5-.65,.41-1.26,.62-1.85,.62h-14.78Z"/></g></g></g></svg>